<?xml version="1.0" encoding="UTF-8" standalone="no"?>
<!-- Created with Inkscape (http://www.inkscape.org/) -->

<svg
   xmlns:dc="http://purl.org/dc/elements/1.1/"
   xmlns:cc="http://creativecommons.org/ns#"
   xmlns:rdf="http://www.w3.org/1999/02/22-rdf-syntax-ns#"
   xmlns:svg="http://www.w3.org/2000/svg"
   xmlns="http://www.w3.org/2000/svg"
   xmlns:sodipodi="http://sodipodi.sourceforge.net/DTD/sodipodi-0.dtd"
   xmlns:inkscape="http://www.inkscape.org/namespaces/inkscape"
   width="744.09448819"
   height="1052.3622047"
   id="svg2"
   version="1.1"
   inkscape:version="0.48.4 r9939"
   sodipodi:docname="squareCatch.svg">
  <sodipodi:namedview
     id="base"
     pagecolor="#ffffff"
     bordercolor="#666666"
     borderopacity="1.0"
     inkscape:pageopacity="0.0"
     inkscape:pageshadow="2"
     inkscape:zoom="2.1054188"
     inkscape:cx="120.87707"
     inkscape:cy="137.97104"
     inkscape:document-units="px"
     inkscape:current-layer="layer1"
     showgrid="false"
     inkscape:window-width="1366"
     inkscape:window-height="705"
     inkscape:window-x="-8"
     inkscape:window-y="-8"
     inkscape:window-maximized="1" />
  <defs
     id="defs4" />
  <metadata
     id="metadata7">
    <rdf:RDF>
      <cc:Work
         rdf:about="">
        <dc:format>image/svg+xml</dc:format>
        <dc:type
           rdf:resource="http://purl.org/dc/dcmitype/StillImage" />
        <dc:title></dc:title>
      </cc:Work>
    </rdf:RDF>
  </metadata>
  <g
     inkscape:label="Layer 1"
     inkscape:groupmode="layer"
     id="layer1">
    <g
       inkscape:label="Gear12"
       transform="translate(242.07143,848.66704)"
       id="g2990" />
    <g
       id="g3006"
       transform="translate(389.28572,129.50506)"
       inkscape:label="Gear20" />
    <path
       id="rect3037"
       style="fill:none;stroke:#000000;stroke-width:0.44856611;stroke-opacity:1"
       d="m 196.27998,880.82072 c 2.88933,0 5.21875,-2.36067 5.21875,-5.25 0,-0.0959 -0.0262,-0.18663 -0.0312,-0.28125 l 0.1875,0 0,-33.75 c 0.10752,-0.4179 0.1875,-0.86104 0.1875,-1.3125 0,-2.88935 -2.36067,-5.21875 -5.25,-5.21875 -2.87877,0 -5.20168,2.31276 -5.21875,5.1875 l -13.875,0 c -0.0171,-2.87474 -2.34001,-5.1875 -5.21875,-5.1875 -2.87877,0 -5.23293,2.31276 -5.25,5.1875 l -0.46875,0 0,35.09375 0.15625,0 c -0.005,0.0946 -0.0312,0.18535 -0.0312,0.28125 0,2.88933 2.36065,5.25 5.25,5.25 2.88934,0 5.21875,-2.36067 5.21875,-5.25 0,-0.0959 -0.0262,-0.18663 -0.0312,-0.28125 l 13.9375,0 c -0.005,0.0946 -0.0312,0.18535 -0.0312,0.28125 0,2.88933 2.36065,5.25 5.25,5.25 z m -50.70297,-22.90625 c 0,3.37199 -2.73349,6.10551 -6.10544,6.10551 -3.37195,0 -6.10546,-2.73352 -6.10546,-6.10551 0,-3.37199 2.73351,-6.10551 6.10546,-6.10551 3.37195,0 6.10544,2.73352 6.10544,6.10551 z m 89.28211,0 c 0,3.37199 -2.73351,6.10551 -6.10546,6.10551 -3.37193,0 -6.10544,-2.73352 -6.10544,-6.10551 0,-3.37199 2.73351,-6.10551 6.10544,-6.10551 3.37195,0 6.10546,2.73352 6.10546,6.10551 z m 10.04491,-3e-5 c 0,33.52482 -27.17726,60.70215 -60.70213,60.70215 -33.52486,0 -60.70213,-27.17733 -60.70213,-60.70215 0,-33.52486 27.17727,-60.7021 60.70213,-60.7021 33.52487,0 60.70213,27.17724 60.70213,60.7021 z" />
    <path
       id="path3064"
       style="fill:none;stroke:#000000;stroke-width:0.50341541;stroke-opacity:1"
       d="m 217.34149,977.27307 c 0,-3.64404 -2.35748,-6.58188 -5.24295,-6.58188 -0.0958,0 -0.18637,0.0331 -0.28087,0.0394 l 0,-0.23647 -33.70472,0 c -0.41734,-0.1356 -0.85989,-0.23646 -1.31073,-0.23646 -2.88547,0 -5.21175,2.97725 -5.21175,6.62128 0,3.63068 2.30964,6.56035 5.18054,6.58187 l 0,17.49909 c -2.8709,0.022 -5.18054,2.9512 -5.18054,6.5819 0,3.6307 2.30964,6.5997 5.18054,6.6212 l 0,0.5912 35.04666,0 0,-0.1971 c 0.0945,0.013 0.1851,0.04 0.28087,0.04 2.88547,0 5.24295,-2.9771 5.24295,-6.6212 0,-3.6441 -2.35748,-6.5819 -5.24295,-6.5819 -0.0958,0 -0.18637,0.033 -0.28087,0.04 l 0,-17.57794 c 0.0945,0.007 0.1851,0.0394 0.28087,0.0394 2.88547,0 5.24295,-2.97724 5.24295,-6.6213 z m -58.43693,-20.59044 0,62.73247 10.03977,8.4397 50.94947,0 -0.34404,-0.2892 10.47764,-8.7815 0,-62.10147 -71.12284,0 z" />
    <path
       id="path3066"
       style="fill:none;stroke:#000000;stroke-width:0.44856611;stroke-opacity:1"
       d="m 79.40387,1007.1781 c 2.88934,0 5.21875,-2.3606 5.21875,-5.25 0,-0.096 -0.0262,-0.1866 -0.0312,-0.2812 l 0.1875,0 0,-33.75004 c 0.10752,-0.4179 0.1875,-0.86104 0.1875,-1.3125 0,-2.88934 -2.36066,-5.21875 -5.25,-5.21875 -2.87876,0 -5.20168,2.31276 -5.21875,5.1875 l -13.875,0 c -0.0171,-2.87474 -2.34,-5.1875 -5.21875,-5.1875 -2.87876,0 -5.23297,2.31276 -5.24997,5.1875 l -0.4688,0 0,35.09379 0.1563,0 c -0.01,0.095 -0.031,0.1853 -0.031,0.2812 0,2.8894 2.36061,5.25 5.24997,5.25 2.88934,0 5.21875,-2.3606 5.21875,-5.25 0,-0.096 -0.0262,-0.1866 -0.0312,-0.2812 l 13.9375,0 c -0.005,0.095 -0.0312,0.1853 -0.0312,0.2812 0,2.8894 2.36065,5.25 5.25,5.25 z m 48.62404,-22.90625 c 0,33.52485 -27.17726,60.70215 -60.702125,60.70215 -33.524857,0 -60.7021244,-27.1773 -60.7021244,-60.70215 0,-33.52485 27.1772674,-60.70209 60.7021244,-60.70209 33.524865,0 60.702125,27.17724 60.702125,60.70209 z m -9.56682,3e-5 c 0,3.3864 -2.74519,6.1316 -6.13155,6.1316 -3.38635,0 -6.13154,-2.7452 -6.13154,-6.1316 0,-3.3864 2.74519,-6.1316 6.13154,-6.1316 3.38636,0 6.13155,2.7452 6.13155,6.1316 z m -89.663699,0 c 0,3.3864 -2.745187,6.1316 -6.131541,6.1316 -3.386365,0 -6.131552,-2.7452 -6.131552,-6.1316 0,-3.3864 2.745187,-6.1316 6.131552,-6.1316 3.386354,0 6.131541,2.7452 6.131541,6.1316 z" />
  </g>
</svg>
