<?xml version="1.0" encoding="UTF-8" standalone="no"?>
<!-- Created with Inkscape (http://www.inkscape.org/) -->

<svg
   xmlns:dc="http://purl.org/dc/elements/1.1/"
   xmlns:cc="http://creativecommons.org/ns#"
   xmlns:rdf="http://www.w3.org/1999/02/22-rdf-syntax-ns#"
   xmlns:svg="http://www.w3.org/2000/svg"
   xmlns="http://www.w3.org/2000/svg"
   xmlns:sodipodi="http://sodipodi.sourceforge.net/DTD/sodipodi-0.dtd"
   xmlns:inkscape="http://www.inkscape.org/namespaces/inkscape"
   id="svg2985"
   version="1.1"
   inkscape:version="0.48.4 r9939"
   width="1062.9925"
   height="1062.9925"
   xml:space="preserve"
   sodipodi:docname="grip.svg"><metadata
     id="metadata2991"><rdf:RDF><cc:Work
         rdf:about=""><dc:format>image/svg+xml</dc:format><dc:type
           rdf:resource="http://purl.org/dc/dcmitype/StillImage" /><dc:title></dc:title></cc:Work></rdf:RDF></metadata><defs
     id="defs2989" /><sodipodi:namedview
     pagecolor="#ffffff"
     bordercolor="#666666"
     borderopacity="1"
     objecttolerance="10"
     gridtolerance="10"
     guidetolerance="10"
     inkscape:pageopacity="0"
     inkscape:pageshadow="2"
     inkscape:window-width="1366"
     inkscape:window-height="705"
     id="namedview2987"
     showgrid="false"
     inkscape:zoom="0.68915123"
     inkscape:cx="582.4233"
     inkscape:cy="267.87839"
     inkscape:window-x="-8"
     inkscape:window-y="-8"
     inkscape:window-maximized="1"
     inkscape:current-layer="g2993" /><g
     id="g2993"
     inkscape:groupmode="layer"
     inkscape:label="grip"
     transform="matrix(1.25,0,0,-1.25,0,1062.9925)"><g
       id="g3047"
       transform="translate(142.05557,208.27295)" /><g
       transform="matrix(0.02697505,-0.99963611,-0.99963611,-0.02697505,609.36628,296.5546)"
       id="g3075" /><path
       id="rect3081"
       transform="matrix(0.02697505,-0.99963611,0.99963611,0.02697505,0,0)"
       style="fill:none;stroke:#000000;stroke-width:0.45912674;stroke-opacity:1"
       d="m -409.89759,467.42719 71.52629,0 c 3.46821,0 6.26031,2.96981 6.26031,6.65877 l 0,45.95614 c 0,3.68896 -2.7921,6.65877 -6.26031,6.65877 l -71.52629,0 c -3.46821,0 -6.26031,-2.96981 -6.26031,-6.65877 l 0,-45.95614 c 0,-3.68896 2.7921,-6.65877 6.26031,-6.65877 z m 192.40684,1.80111 113.90476,0 c 5.523089,0 9.969474,2.96382 9.969474,6.64533 l 0,45.86335 c 0,3.68152 -4.446385,6.64533 -9.969474,6.64533 l -113.90476,0 c -5.52309,0 -9.96947,-2.96381 -9.96947,-6.64533 l 0,-45.86335 c 0,-3.68151 4.44638,-6.64533 9.96947,-6.64533 z m -62.51825,147.91581 -4.7,-0.2 -4.6,-0.6 -4.6,-1 -4.5,-1.3 -4.3,-1.7 -4.3,-2.1 -4,-2.4 -3.8,-2.7 -3.6,-3 -3.3,-3.3 -3,-3.6 -2.7,-3.8 -2.4,-4.1 -2.1,-4.2 -1.7,-4.3 -1.3,-4.5 -1,-4.6 -0.6,-4.7 -0.2,-4.6 0,-86.9 -72,0 m 223.2,143.6 -94.5,0 m 60.3,-89.1 34.2,89.1 m 91.800001,-143.1 76.5,0 m -44.2,19.5 5.1,-3.4 5.2,-3.1 5.3,-2.9 5.5,-2.6 5.6,-2.3 5.7,-2 5.9,-1.8 5.9,-1.4 m -64.2,86 -1.5,-4.4 -1.1,-4.6 -0.7,-4.6 -0.4,-4.6 0,-4.7 0.4,-4.6 0.8,-4.6 1.2,-4.6 1.5,-4.4 1.9,-4.2 2.2,-4.1 2.6,-4 2.8,-3.6 3.2,-3.5 3.4,-3.1 3.7,-2.9 m 78.3,322.5 -98.3,-256 m -27.700001,256 126.000001,0 m -296.900001,-184.8 100,0 m -170,-60 1,5.2 1.4,5.1 1.8,5 2.1,4.8 2.5,4.7 2.8,4.5 3.2,4.2 3.4,4 3.8,3.7 4,3.5 4.2,3.1 4.5,2.8 4.7,2.5 4.8,2.1 5,1.7 5.1,1.4 5.2,0.9 5.3,0.6 5.2,0.2 m -114.5,-103.7 4.4,0.8 4.3,1.2 4.2,1.5 4,1.9 3.9,2.2 3.6,2.5 3.5,2.9 3.2,3.1 2.9,3.4 2.6,3.6 2.2,3.8 2,4 1.6,4.2 1.2,4.3 0.9,4.3 m 291.000001,229.2 2.6,-0.2 2.6,-0.6 2.4,-0.9 2.3,-1.3 2.1,-1.6 1.8,-1.9 1.6,-2.1 1.2,-2.4 0.8,-2.5 0.5,-2.6 0.1,-2.6 -0.3,-2.6 -0.7,-2.5 -1,-2.5 -1.4,-2.2 -1.7,-2 -1.9,-1.8 -2.2,-1.4 -2.4,-1.1 -2.5,-0.8 -2.6,-0.4 -2.6,0 -2.6,0.4 -2.5,0.8 -2.4,1.1 -2.2,1.4 -2,1.8 -1.6,2 -1.4,2.2 -1,2.5 -0.7,2.5 -0.3,2.6 0.1,2.6 0.5,2.6 0.8,2.5 1.2,2.4 1.6,2.1 1.8,1.9 2.1,1.6 2.2,1.3 2.5,0.9 2.6,0.6 2.6,0.2 m -121.000001,-169.2 70.9,184.8 m 50.100001,-24.4 1.8,-0.2 1.8,-0.6 1.6,-0.9 1.4,-1.2 1.2,-1.5 0.8,-1.6 0.5,-1.8 0.1,-1.9 -0.3,-1.8 -0.7,-1.8 -1,-1.5 -1.2,-1.4 -1.6,-1.1 -1.7,-0.7 -1.8,-0.4 -1.8,0 -1.9,0.4 -1.7,0.7 -1.5,1.1 -1.3,1.4 -1,1.5 -0.6,1.8 -0.3,1.8 0.1,1.9 0.5,1.8 0.8,1.6 1.1,1.5 1.4,1.2 1.7,0.9 1.7,0.6 1.9,0.2 m -349.700001,-318.1 0,54 m 36,-18 1.9,-0.2 1.8,-0.6 1.6,-0.9 1.4,-1.2 1.1,-1.4 0.8,-1.7 0.5,-1.8 0.1,-1.9 -0.3,-1.8 -0.6,-1.7 -1,-1.6 -1.3,-1.4 -1.5,-1 -1.7,-0.8 -1.8,-0.3 -1.9,0 -1.8,0.3 -1.7,0.8 -1.5,1 -1.3,1.4 -1,1.6 -0.6,1.7 -0.3,1.8 0.1,1.9 0.4,1.8 0.8,1.7 1.2,1.4 1.4,1.2 1.6,0.9 1.8,0.6 1.8,0.2 m -36,18 1.8,-0.2 1.8,-0.1 1.7,-0.1 1.8,0 1.8,0 1.8,0.1 1.7,0.1 m 239.6,-17.1 1.9,-0.2 1.8,-0.6 1.6,-0.9 1.4,-1.2 1.1,-1.5 0.8,-1.6 0.5,-1.8 0.1,-1.9 -0.3,-1.8 -0.6,-1.8 -1,-1.5 -1.3,-1.4 -1.5,-1 -1.7,-0.8 -1.8,-0.3 -1.9,0 -1.8,0.3 -1.7,0.8 -1.5,1 -1.3,1.4 -1,1.5 -0.6,1.8 -0.3,1.8 0.1,1.9 0.4,1.8 0.8,1.6 1.2,1.5 1.4,1.2 1.6,0.9 1.8,0.6 1.8,0.2 m -63,-36.2 0,54 m 126.000001,-54 -126.000001,0 m -137.82239,-452.224755 1.92942,71.500252 c 0.0936,3.466951 3.1376,6.177924 6.82522,6.078414 l 45.93943,-1.239669 c 3.68761,-0.09951 6.58103,-2.970705 6.48747,-6.437656 l -1.92942,-71.500252 c -0.0936,-3.466951 -3.1376,-6.177923 -6.82522,-6.078414 l -45.93943,1.23967 c -3.68762,0.09951 -6.58103,2.970704 -6.48747,6.437655 z m 6.99064,192.288245 3.07259,113.86331 c 0.14899,5.52107 3.23167,9.88589 6.91184,9.78658 l 45.84666,-1.23717 c 3.68017,-0.0993 6.52297,-4.62403 6.37399,-10.1451 l -3.07259,-113.86331 c -0.14899,-5.52108 -3.23167,-9.8859 -6.91184,-9.78659 l -45.84666,1.23717 c -3.68017,0.0993 -6.52297,4.62403 -6.37399,10.14511 z m 146.17555,-66.48555 -0.32671,-4.69289 -0.72387,-4.58215 -1.12372,-4.57135 -1.42092,-4.46329 -1.81537,-4.25258 -2.21523,-4.24179 -2.50703,-3.9338 -2.80152,-3.72579 -3.09602,-3.51776 -3.38781,-3.20978 -3.67962,-2.9018 -3.87145,-2.59651 -4.16325,-2.288532 -4.25512,-1.98594 -4.34429,-1.583389 -4.53343,-1.178139 -4.6253,-0.875551 -4.71448,-0.472999 -4.60372,-0.07584 -86.86837,2.344132 -1.94221,-71.9738 m 149.56858,219.24516 -2.54914,-94.46561 m -87.44099,62.68153 89.99013,31.78408 m -140.57162,95.62673 2.06359,76.47216 m 18.30061,-44.70993 -3.26119,5.18986 -2.9586,5.28173 -2.75598,5.3763 -2.45069,5.56813 -2.1481,5.66001 -1.84552,5.75187 -1.64019,5.94641 -1.24034,5.93562 m 84.23691,-66.49649 -4.43886,-1.38077 -4.628,-0.97551 -4.61721,-0.57566 -4.60912,-0.27577 -4.69829,0.12678 -4.58753,0.52394 -4.57675,0.92379 -4.56595,1.32365 -4.35794,1.61815 -4.14722,2.0126 -4.03916,2.3098 -3.92841,2.70695 -3.52316,2.89609 -3.41241,3.29325 -3.00715,3.48239 -2.79914,3.77688 M 2.4713092,439.04867 -256.08718,347.69006 M -0.92754712,313.09452 2.4713092,439.04867 M -190.27034,147.2417 l 2.69751,99.96361 m -64.56392,-168.319633 5.22508,0.859366 5.13591,1.261918 5.04673,1.66447 4.8549,1.969755 4.76573,2.372308 4.57389,2.677593 4.2848,3.08554 4.09025,3.290863 3.80116,3.69881 3.60663,3.90413 3.21217,4.11485 2.92037,4.42283 2.62587,4.63085 2.22872,4.74161 1.83425,4.95232 1.53707,5.06038 1.03994,5.17383 0.74275,5.28189 0.34019,5.19271 m -106.7509,-111.66102 0.9184,4.376819 1.31555,4.266065 1.61275,4.158009 2.00721,3.947292 2.3044,3.839236 2.5962,3.531252 2.99336,3.420499 3.18519,3.115213 3.47699,2.807229 3.66883,2.501944 3.85796,2.096694 4.0525,1.891372 4.24163,1.486123 4.3308,1.083571 4.32272,0.783679 m 236.96633,284.711423 -0.129792,2.60445 -0.529647,2.61524 -0.834932,2.4234 -1.237485,2.33423 -1.54277,2.1424 -1.850753,1.8506 -2.056076,1.65606 -2.366757,1.26431 -2.47751,0.86714 -2.585566,0.56996 -2.596357,0.1701 -2.607146,-0.22976 -2.517973,-0.63231 -2.526065,-0.9322 -2.236965,-1.34014 -2.045129,-1.64543 -1.850598,-1.85076 -1.458836,-2.16143 -1.164339,-2.36946 -0.867147,-2.47751 -0.46999,-2.58826 -0.07014,-2.59905 0.32972,-2.60985 0.732271,-2.52067 1.034859,-2.4288 1.340146,-2.23696 1.745395,-2.04783 1.956112,-1.65337 2.161434,-1.45883 2.472116,-1.06708 2.480207,-0.76718 2.590962,-0.37002 2.601751,0.0298 2.612541,0.42969 2.520671,0.73227 2.431496,1.13482 2.142396,1.54277 1.947864,1.74809 1.656065,2.05608 1.358872,2.16413 0.967111,2.47481 0.669916,2.58287 0.270063,2.59366 M -187.57283,247.20531 -0.92754712,313.09452 m -23.03967088,50.73996 -0.151372,1.80474 -0.551227,1.81553 -0.856512,1.6237 -1.161798,1.43186 -1.467085,1.24002 -1.577837,0.84287 -1.785858,0.54838 -1.896611,0.15121 -1.807437,-0.25133 -1.818228,-0.65119 -1.526429,-0.95918 -1.431861,-1.16179 -1.142759,-1.56975 -0.745603,-1.6805 -0.44841,-1.78855 -0.04856,-1.79935 0.348602,-1.9101 0.653888,-1.71826 1.059137,-1.52913 1.364423,-1.33729 1.472479,-1.0401 1.78316,-0.64834 1.791252,-0.34844 1.902006,0.0487 1.812833,0.45126 1.620998,0.75655 1.529126,1.05914 1.237329,1.36712 0.94553,1.6751 0.645639,1.6832 0.25118,1.89391 M -351.38464,22.8425 l 53.98035,-1.456652 m -17.02235,36.47245 -0.14867,1.904704 -0.55123,1.81553 -0.85651,1.623695 -1.1618,1.431861 -1.36982,1.137365 -1.6778,0.845566 -1.78585,0.548373 -1.89662,0.151216 -1.80743,-0.251335 -1.71557,-0.553924 -1.62639,-0.956476 -1.43456,-1.261762 -1.0401,-1.472479 -0.84557,-1.677802 -0.34844,-1.791252 -0.0513,-1.899309 0.25133,-1.807437 0.75385,-1.720962 0.95918,-1.526429 1.36442,-1.337292 1.57244,-1.042796 1.6832,-0.645639 1.79125,-0.348446 1.90201,0.04871 1.81013,0.351299 1.72096,0.753851 1.43186,1.161799 1.23733,1.36712 0.94283,1.57514 0.64834,1.78316 0.24848,1.79395 m 17.02235,-36.47245 -0.15137,1.80474 -0.0514,1.802042 -0.0541,1.702079 0.0486,1.799345 0.0486,1.799345 0.14851,1.796647 0.14583,1.696684 m -10.63056,239.97408 -0.14867,1.90471 -0.55123,1.81553 -0.85651,1.62369 -1.1618,1.43186 -1.46978,1.14007 -1.57784,0.84287 -1.78586,0.54837 -1.89661,0.15121 -1.80744,-0.25133 -1.81553,-0.55123 -1.52643,-0.95917 -1.43455,-1.26176 -1.0401,-1.47248 -0.84557,-1.6778 -0.34845,-1.79126 -0.0512,-1.8993 0.25134,-1.80744 0.75385,-1.72096 0.95917,-1.52643 1.36443,-1.33729 1.47247,-1.0401 1.78316,-0.64834 1.79126,-0.34845 1.902,0.0487 1.81014,0.3513 1.621,0.75655 1.53182,1.1591 1.23733,1.36712 0.94283,1.57514 0.64834,1.78316 0.24848,1.79395 m -37.88626,-62.00057 53.98035,-1.45666 m -50.58149,127.41081 -3.39886,-125.95415 m 156.35305,389.18171 0.29438,10.90903 m 13.49134,-25.45939 10.90902,-0.29438 m -25.45939,-13.49134 -0.29438,-10.90903 m -13.49144,25.4594 -10.90903,0.29438" /></g></svg>