<?xml version="1.0" encoding="UTF-8" standalone="no"?>
<!-- Created with Inkscape (http://www.inkscape.org/) -->

<svg
   xmlns:dc="http://purl.org/dc/elements/1.1/"
   xmlns:cc="http://creativecommons.org/ns#"
   xmlns:rdf="http://www.w3.org/1999/02/22-rdf-syntax-ns#"
   xmlns:svg="http://www.w3.org/2000/svg"
   xmlns="http://www.w3.org/2000/svg"
   version="1.1"
   width="744.09448"
   height="1052.3622"
   id="svg2">
  <defs
     id="defs4" />
  <metadata
     id="metadata7">
    <rdf:RDF>
      <cc:Work
         rdf:about="">
        <dc:format>image/svg+xml</dc:format>
        <dc:type
           rdf:resource="http://purl.org/dc/dcmitype/StillImage" />
        <dc:title></dc:title>
      </cc:Work>
    </rdf:RDF>
  </metadata>
  <g
     id="layer1">
    <g
       transform="translate(242.07143,848.66704)"
       id="g2990" />
    <g
       transform="translate(389.28572,129.50506)"
       id="g3006" />
    <path
       d="m 174.46039,1013.6725 c -12.76448,-0.5684 -22.95646,-9.6658 -23.42548,-20.91907 -0.45433,-0.77009 -0.74199,-1.64558 -0.74199,-2.576 l 0,-23.58832 c 0,-3.09496 2.83651,-5.58667 6.35986,-5.58667 l 38.15914,0 c 3.52336,0 6.35987,2.49171 6.35987,5.58667 l 0,23.58832 c 0,0.94105 -0.24261,1.83064 -0.70667,2.6071 -0.50237,11.61057 -11.39239,20.88797 -24.73276,20.88797 -0.42689,0 -0.85039,0.02 -1.27197,0 z"
       id="path3594"
       style="fill:none;stroke:#000000;stroke-width:1.32113743;stroke-opacity:1" />
    <path
       d="m 175.73236,942.96254 c 20.38203,0 36.79064,12.37073 36.79064,27.73706 l 0,33.2846 c 0,15.3662 -16.40861,27.7371 -36.79064,27.7371 -20.38201,0 -36.79064,-12.3709 -36.79064,-27.7371 l 0,-33.2846 c 0,-15.36633 16.40863,-27.73706 36.79064,-27.73706 z"
       id="path3159"
       style="fill:none;stroke:#000000;stroke-width:1.28397858;stroke-opacity:1" />
    <path
       d="m 29.390314,995.0957 c 0,5.9396 -4.815036,10.7547 -10.754675,10.7547 -5.939649,0 -10.7546748,-4.8151 -10.7546748,-10.7547 0,-5.9396 4.8150258,-10.7547 10.7546748,-10.7547 5.939639,0 10.754675,4.8151 10.754675,10.7547 z m -4.623134,0 c 0,3.3864 -2.745187,6.1316 -6.131541,6.1316 -3.386365,0 -6.131552,-2.7452 -6.131552,-6.1316 0,-3.3864 2.745187,-6.1316 6.131552,-6.1316 3.386354,0 6.131541,2.7452 6.131541,6.1316 z m 94.46615,0 c 0,5.9396 -4.81504,10.7547 -10.75468,10.7547 -5.93965,0 -10.754666,-4.8151 -10.754666,-10.7547 0,-5.9396 4.815016,-10.7547 10.754666,-10.7547 5.93964,0 10.75468,4.8151 10.75468,10.7547 z m -4.80245,0 c 0,3.3864 -2.74519,6.1316 -6.13155,6.1316 -3.38635,0 -6.13154,-2.7452 -6.13154,-6.1316 0,-3.3864 2.74519,-6.1316 6.13154,-6.1316 3.38636,0 6.13155,2.7452 6.13155,6.1316 z m -21.823823,-9.14781 c 0,16.04381 -13.006086,29.04991 -29.049908,29.04991 -16.04382,0 -29.049908,-13.0061 -29.049908,-29.04991 0,-16.04382 13.006088,-29.04991 29.049908,-29.04991 16.043822,0 29.049908,13.00609 29.049908,29.04991 z m 31.390643,0.26161 c 0,33.5248 -27.177265,60.7022 -60.702126,60.7022 -33.524857,0 -60.7021242,-27.1774 -60.7021242,-60.7022 0,-33.52485 27.1772672,-60.70209 60.7021242,-60.70209 33.524861,0 60.702126,27.17724 60.702126,60.70209 z m -7.14114,-31.3037 -52.070411,93.0268 -54.528414,-91.60768 z"
       id="path3207"
       style="fill:none;stroke:#000000;stroke-opacity:1" />
    <path
       d="m 76.156566,848.4546 c 0,12.73934 -10.327273,23.0666 -23.066603,23.0666 -12.73933,0 -23.066603,-10.32726 -23.066603,-23.0666 0,-12.73932 10.327273,-23.0666 23.066603,-23.0666 12.73933,0 23.066603,10.32728 23.066603,23.0666 z m 8.482621,-30.61404 c -0.849562,0 -1.66515,0.11709 -2.460942,0.29532 l -60.670318,0.7875 c -6.222094,0 -11.254678,5.0654 -11.254678,11.2875 0,1.55553 0.315834,3.0162 0.885932,4.36407 0.0034,0.009 -0.0034,0.0239 0,0.0328 l 0.09848,0.13125 c 0.351059,0.79322 0.796313,1.54689 1.312506,2.23126 l 30.515618,51.28592 c 1.514152,4.43484 5.716492,7.61245 10.664066,7.61245 5.091359,0 9.399656,-3.36966 10.795311,-8.0062 l 29.039064,-51.87656 c 1.466053,-1.90182 2.362496,-4.27081 2.362496,-6.85781 0,-6.2221 -5.065395,-11.2875 -11.28749,-11.2875 z"
       id="path3258"
       style="fill:none;stroke:#000000;stroke-width:1.11680222;stroke-opacity:1" />
    <path
       d="m 244.90403,857.91444 c 0,33.52482 -27.17726,60.70215 -60.70213,60.70215 -33.52486,0 -60.70213,-27.17733 -60.70213,-60.70215 0,-33.52486 27.17727,-60.7021 60.70213,-60.7021 33.52487,0 60.70213,27.17724 60.70213,60.7021 z m -31.77585,0 c 0,15.97552 -12.95074,28.9263 -28.92628,28.9263 -15.97554,0 -28.92628,-12.95078 -28.92628,-28.9263 0,-15.97553 12.95074,-28.92626 28.92628,-28.92626 15.97554,0 28.92628,12.95073 28.92628,28.92626 z m 21.73094,9.10888 c 0,3.37199 -2.73351,6.10551 -6.10546,6.10551 -3.37193,0 -6.10544,-2.73352 -6.10544,-6.10551 0,-3.37199 2.73351,-6.10551 6.10544,-6.10551 3.37195,0 6.10546,2.73352 6.10546,6.10551 z m -89.28211,0 c 0,3.37199 -2.73349,6.10551 -6.10544,6.10551 -3.37195,0 -6.10546,-2.73352 -6.10546,-6.10551 0,-3.37199 2.73351,-6.10551 6.10546,-6.10551 3.37195,0 6.10544,2.73352 6.10544,6.10551 z"
       id="path3588"
       style="fill:none;stroke:#000000;stroke-width:0.99574399;stroke-opacity:1" />
  </g>
</svg>
