<?xml version="1.0" encoding="UTF-8" standalone="no"?>
<!-- Created with Inkscape (http://www.inkscape.org/) -->

<svg
   xmlns:dc="http://purl.org/dc/elements/1.1/"
   xmlns:cc="http://creativecommons.org/ns#"
   xmlns:rdf="http://www.w3.org/1999/02/22-rdf-syntax-ns#"
   xmlns:svg="http://www.w3.org/2000/svg"
   xmlns="http://www.w3.org/2000/svg"
   version="1.1"
   width="744.09448"
   height="1052.3622"
   id="svg2">
  <defs
     id="defs4" />
  <metadata
     id="metadata7">
    <rdf:RDF>
      <cc:Work
         rdf:about="">
        <dc:format>image/svg+xml</dc:format>
        <dc:type
           rdf:resource="http://purl.org/dc/dcmitype/StillImage" />
        <dc:title></dc:title>
      </cc:Work>
    </rdf:RDF>
  </metadata>
  <g
     id="layer1">
    <g
       transform="translate(242.07143,848.66704)"
       id="g2990" />
    <g
       transform="translate(389.28572,129.50506)"
       id="g3006" />
    <path
       d="m 33.420525,993.15805 c 0,5.9396 -4.815036,10.75475 -10.754675,10.75475 -5.939649,0 -10.754675,-4.81515 -10.754675,-10.75475 0,-5.9396 4.815026,-10.7547 10.754675,-10.7547 5.939639,0 10.754675,4.8151 10.754675,10.7547 z"
       id="path4505"
       style="fill:none;stroke:#000000;stroke-opacity:1" />
    <path
       d="m 28.797391,993.15805 c 0,3.3864 -2.745187,6.1316 -6.131541,6.1316 -3.386365,0 -6.131552,-2.7452 -6.131552,-6.1316 0,-3.3864 2.745187,-6.1316 6.131552,-6.1316 3.386354,0 6.131541,2.7452 6.131541,6.1316 z"
       id="path4503"
       style="fill:none;stroke:#000000;stroke-opacity:1" />
    <path
       d="m 123.26354,993.15805 c 0,5.9396 -4.81504,10.75475 -10.75468,10.75475 -5.93965,0 -10.75466,-4.81515 -10.75466,-10.75475 0,-5.9396 4.81501,-10.7547 10.75466,-10.7547 5.93964,0 10.75468,4.8151 10.75468,10.7547 z"
       id="path4501"
       style="fill:none;stroke:#000000;stroke-opacity:1" />
    <path
       d="m 118.46109,993.15805 c 0,3.3864 -2.74519,6.1316 -6.13155,6.1316 -3.38635,0 -6.13154,-2.7452 -6.13154,-6.1316 0,-3.3864 2.74519,-6.1316 6.13154,-6.1316 3.38636,0 6.13155,2.7452 6.13155,6.1316 z"
       id="path4499"
       style="fill:none;stroke:#000000;stroke-opacity:1" />
    <path
       d="m 128.02791,984.27185 c 0,33.52485 -27.17726,60.70215 -60.702125,60.70215 -33.524857,0 -60.7021244,-27.1773 -60.7021244,-60.70215 0,-33.52485 27.1772674,-60.70209 60.7021244,-60.70209 33.524865,0 60.702125,27.17724 60.702125,60.70209 z"
       id="path4495"
       style="fill:none;stroke:#000000;stroke-opacity:1" />
    <path
       d="m 76.156566,848.4546 c 0,12.73934 -10.327273,23.0666 -23.066603,23.0666 -12.73933,0 -23.066603,-10.32726 -23.066603,-23.0666 0,-12.73932 10.327273,-23.0666 23.066603,-23.0666 12.73933,0 23.066603,10.32728 23.066603,23.0666 z m 8.482621,-30.61404 c -0.849562,0 -1.66515,0.11709 -2.460942,0.29532 l -60.670318,0.7875 c -6.222094,0 -11.254678,5.0654 -11.254678,11.2875 0,1.55553 0.315834,3.0162 0.885932,4.36407 0.0034,0.009 -0.0034,0.0239 0,0.0328 l 0.09848,0.13125 c 0.351059,0.79322 0.796313,1.54689 1.312506,2.23126 l 30.515618,51.28592 c 1.514152,4.43484 5.716492,7.61245 10.664066,7.61245 5.091359,0 9.399656,-3.36966 10.795311,-8.0062 l 29.039064,-51.87656 c 1.466053,-1.90182 2.362496,-4.27081 2.362496,-6.85781 0,-6.2221 -5.065395,-11.2875 -11.28749,-11.2875 z"
       id="path3258"
       style="fill:none;stroke:#000000;stroke-width:1.11680222;stroke-opacity:1" />
    <path
       d="m 244.90403,857.91444 c 0,33.52482 -27.17726,60.70215 -60.70213,60.70215 -33.52486,0 -60.70213,-27.17733 -60.70213,-60.70215 0,-33.52486 27.17727,-60.7021 60.70213,-60.7021 33.52487,0 60.70213,27.17724 60.70213,60.7021 z"
       id="path4489"
       style="fill:none;stroke:#000000;stroke-width:0.99574399;stroke-opacity:1" />
    <path
       d="m 234.85912,867.02332 c 0,3.37199 -2.73351,6.10551 -6.10546,6.10551 -3.37193,0 -6.10544,-2.73352 -6.10544,-6.10551 0,-3.37199 2.73351,-6.10551 6.10544,-6.10551 3.37195,0 6.10546,2.73352 6.10546,6.10551 z"
       id="path4485"
       style="fill:none;stroke:#000000;stroke-width:0.99574399;stroke-opacity:1" />
    <path
       d="m 145.57701,867.02332 c 0,3.37199 -2.73349,6.10551 -6.10544,6.10551 -3.37195,0 -6.10546,-2.73352 -6.10546,-6.10551 0,-3.37199 2.73351,-6.10551 6.10546,-6.10551 3.37195,0 6.10544,2.73352 6.10544,6.10551 z"
       id="path3588"
       style="fill:none;stroke:#000000;stroke-width:0.99574399;stroke-opacity:1" />
    <path
       d="m 159.73259,945.87906 c -2.78654,0 -5.0625,2.27596 -5.0625,5.0625 0,2.75581 2.22466,4.98218 4.96875,5.03125 l 0,51.90619 c -2.74423,0.049 -4.96875,2.3066 -4.96875,5.0625 0,2.7866 2.27596,5.0313 5.0625,5.0313 2.64491,0 4.78629,-2.0352 5,-4.625 l 37.96875,0 c 0.21371,2.5898 2.38634,4.625 5.03125,4.625 2.78653,0 5.03124,-2.2447 5.03124,-5.0313 0,-2.7106 -2.13107,-4.944 -4.81249,-5.0625 l 0,-51.90619 c 2.68101,-0.1189 4.81249,-2.3209 4.81249,-5.03125 0,-2.78654 -2.24471,-5.0625 -5.03124,-5.0625 -2.78654,0 -5.0625,2.27596 -5.0625,5.0625 0,0.20768 0.0381,0.39265 0.0625,0.59375 l -38,0 c 0.0241,-0.19982 0.0312,-0.38744 0.0312,-0.59375 0,-2.78654 -2.24471,-5.0625 -5.03125,-5.0625 z"
       id="rect4455"
       style="fill:none;stroke:#000000;stroke-width:1.18919992;stroke-opacity:1" />
    <path
       d="m 159.7019,833.57072 c 0,0.61892 0.11289,1.23127 0.3125,1.78125 l 0,46.75 c -0.002,0.0519 0,0.10399 0,0.15625 0,2.85279 2.33471,5.15625 5.1875,5.15625 2.85279,0 5.15625,-2.30346 5.15625,-5.15625 0,-0.0523 0.002,-0.10436 0,-0.15625 l 28.09375,0 c -0.002,0.0506 0,0.1053 0,0.15625 0,2.78128 2.24997,5.03125 5.03125,5.03125 2.78128,0 5.03125,-2.24997 5.03125,-5.03125 0,-0.051 0.001,-0.10566 0,-0.15625 l 0.1875,0 0,-48.6875 -0.1875,0 c -0.0854,-2.70644 -2.30408,-4.875 -5.03125,-4.875 -2.72717,0 -4.94587,2.16856 -5.03125,4.875 l -28.4375,0 c -0.0826,-2.78052 -2.35572,-5 -5.15625,-5 -2.85279,0 -5.15625,2.30346 -5.15625,5.15625 z"
       id="rect4469"
       style="fill:none;stroke:#000000;stroke-width:0.81444359;stroke-opacity:1" />
    <path
       d="m 42.825786,960.4386 c 0,0.61892 0.11289,1.23127 0.3125,1.78125 l 0,46.75005 c -0.002,0.052 0,0.1039 0,0.1562 0,2.8528 2.33471,5.1563 5.1875,5.1563 2.85279,0 5.15625,-2.3035 5.15625,-5.1563 0,-0.052 0.002,-0.1044 0,-0.1562 l 28.09375,0 c -0.002,0.051 0,0.1053 0,0.1562 0,2.7813 2.24997,5.0313 5.03125,5.0313 2.78128,0 5.03125,-2.25 5.03125,-5.0313 0,-0.051 0.001,-0.1057 0,-0.1562 l 0.1875,0 0,-48.68755 -0.1875,0 c -0.0854,-2.70644 -2.30408,-4.875 -5.03125,-4.875 -2.72717,0 -4.94587,2.16856 -5.03125,4.875 l -28.4375,0 c -0.0826,-2.78052 -2.35572,-5 -5.15625,-5 -2.85279,0 -5.15625,2.30346 -5.15625,5.15625 z"
       id="path4491"
       style="fill:none;stroke:#000000;stroke-width:0.81444359;stroke-opacity:1" />
    <rect
       width="71.058807"
       height="89.059296"
       x="148.18756"
       y="937.39624"
       id="rect4521"
       style="fill:none;stroke:#000000;stroke-width:0.9411962;stroke-opacity:1" />
  </g>
</svg>
