<?xml version="1.0" encoding="UTF-8" standalone="no"?>
<!-- Created with Inkscape (http://www.inkscape.org/) -->

<svg
   xmlns:dc="http://purl.org/dc/elements/1.1/"
   xmlns:cc="http://creativecommons.org/ns#"
   xmlns:rdf="http://www.w3.org/1999/02/22-rdf-syntax-ns#"
   xmlns:svg="http://www.w3.org/2000/svg"
   xmlns="http://www.w3.org/2000/svg"
   xmlns:sodipodi="http://sodipodi.sourceforge.net/DTD/sodipodi-0.dtd"
   xmlns:inkscape="http://www.inkscape.org/namespaces/inkscape"
   width="744.09448819"
   height="1052.3622047"
   id="svg2"
   version="1.1"
   inkscape:version="0.48.4 r9939"
   sodipodi:docname="squareCatch.svg">
  <sodipodi:namedview
     id="base"
     pagecolor="#ffffff"
     bordercolor="#666666"
     borderopacity="1.0"
     inkscape:pageopacity="0.0"
     inkscape:pageshadow="2"
     inkscape:zoom="1.0527094"
     inkscape:cx="140.70267"
     inkscape:cy="181.13671"
     inkscape:document-units="px"
     inkscape:current-layer="layer1"
     showgrid="false"
     inkscape:window-width="1366"
     inkscape:window-height="705"
     inkscape:window-x="-8"
     inkscape:window-y="-8"
     inkscape:window-maximized="1" />
  <defs
     id="defs4" />
  <metadata
     id="metadata7">
    <rdf:RDF>
      <cc:Work
         rdf:about="">
        <dc:format>image/svg+xml</dc:format>
        <dc:type
           rdf:resource="http://purl.org/dc/dcmitype/StillImage" />
        <dc:title></dc:title>
      </cc:Work>
    </rdf:RDF>
  </metadata>
  <g
     inkscape:label="Layer 1"
     inkscape:groupmode="layer"
     id="layer1">
    <g
       inkscape:label="Gear12"
       transform="translate(242.07143,848.66704)"
       id="g2990" />
    <g
       id="g3006"
       transform="translate(389.28572,129.50506)"
       inkscape:label="Gear20" />
    <path
       style="fill:none;stroke:#000000;stroke-opacity:1"
       d="m 33.420525,984.27185 c 0,5.9396 -4.815036,10.75475 -10.754675,10.75475 -5.939649,0 -10.754675,-4.81515 -10.754675,-10.75475 0,-5.9396 4.815026,-10.7547 10.754675,-10.7547 5.939639,0 10.754675,4.81511 10.754675,10.7547 z"
       id="path4505"
       inkscape:connector-curvature="0" />
    <path
       style="fill:none;stroke:#000000;stroke-opacity:1"
       d="m 28.797391,984.27188 c 0,3.3864 -2.745187,6.1316 -6.131541,6.1316 -3.386365,0 -6.131552,-2.7452 -6.131552,-6.1316 0,-3.3864 2.745187,-6.1316 6.131552,-6.1316 3.386354,0 6.131541,2.7452 6.131541,6.1316 z"
       id="path4503"
       inkscape:connector-curvature="0" />
    <path
       style="fill:none;stroke:#000000;stroke-opacity:1"
       d="m 123.26354,984.27185 c 0,5.9396 -4.81504,10.75475 -10.75468,10.75475 -5.93965,0 -10.75466,-4.81515 -10.75466,-10.75475 0,-5.9396 4.81501,-10.7547 10.75466,-10.7547 5.93964,0 10.75468,4.81511 10.75468,10.7547 z"
       id="path4501"
       inkscape:connector-curvature="0" />
    <path
       style="fill:none;stroke:#000000;stroke-opacity:1"
       d="m 118.46109,984.27188 c 0,3.3864 -2.74519,6.1316 -6.13155,6.1316 -3.38635,0 -6.13154,-2.7452 -6.13154,-6.1316 0,-3.3864 2.74519,-6.1316 6.13154,-6.1316 3.38636,0 6.13155,2.7452 6.13155,6.1316 z"
       id="path4499"
       inkscape:connector-curvature="0" />
    <path
       style="fill:none;stroke:#000000;stroke-width:0.99574399;stroke-opacity:1"
       d="m 244.90403,857.91444 c 0,33.52482 -27.17726,60.70215 -60.70213,60.70215 -33.52486,0 -60.70213,-27.17733 -60.70213,-60.70215 0,-33.52486 27.17727,-60.7021 60.70213,-60.7021 33.52487,0 60.70213,27.17724 60.70213,60.7021 z"
       id="path4489" />
    <path
       style="fill:none;stroke:#000000;stroke-width:0.99574399;stroke-opacity:1"
       d="m 234.85912,857.91447 c 0,3.37199 -2.73351,6.10551 -6.10546,6.10551 -3.37193,0 -6.10544,-2.73352 -6.10544,-6.10551 0,-3.37199 2.73351,-6.10551 6.10544,-6.10551 3.37195,0 6.10546,2.73352 6.10546,6.10551 z"
       id="path4485"
       inkscape:connector-curvature="0" />
    <path
       style="fill:none;stroke:#000000;stroke-width:0.99574399;stroke-opacity:1"
       d="m 145.57701,857.91447 c 0,3.37199 -2.73349,6.10551 -6.10544,6.10551 -3.37195,0 -6.10546,-2.73352 -6.10546,-6.10551 0,-3.37199 2.73351,-6.10551 6.10546,-6.10551 3.37195,0 6.10544,2.73352 6.10544,6.10551 z"
       id="path3588"
       inkscape:connector-curvature="0" />
    <path
       style="fill:none;stroke:#000000;stroke-width:1.1155684;stroke-opacity:1"
       d="m 170.47982,953.79816 c -2.78654,0 -5.0625,2.00285 -5.0625,4.455 0,2.42512 2.22466,4.38432 4.96875,4.4275 l 0,45.67744 c -2.74423,0.043 -4.96875,2.0297 -4.96875,4.4549 0,2.4522 2.27596,4.4276 5.0625,4.4276 2.64491,0 4.78629,-1.791 5,-4.07 l 37.96875,0 c 0.21371,2.279 2.38634,4.07 5.03125,4.07 2.78653,0 5.03124,-1.9754 5.03124,-4.4276 0,-2.3853 -2.13107,-4.3506 -4.81249,-4.4549 l 0,-45.67744 c 2.68101,-0.10463 4.81249,-2.04239 4.81249,-4.4275 0,-2.45215 -2.24471,-4.455 -5.03124,-4.455 -2.78654,0 -5.0625,2.00285 -5.0625,4.455 0,0.18276 0.0381,0.34554 0.0625,0.5225 l -38,0 c 0.0241,-0.17584 0.0312,-0.34094 0.0312,-0.5225 0,-2.45215 -2.24471,-4.455 -5.03125,-4.455 z"
       id="rect4455"
       inkscape:connector-curvature="0" />
    <path
       style="fill:none;stroke:#000000;stroke-width:0.80625802;stroke-opacity:1"
       d="m 159.7019,834.05758 c 0,0.60655 0.11289,1.20665 0.3125,1.74563 l 0,45.815 c -0.002,0.0509 0,0.10191 0,0.15312 0,2.79574 2.33471,5.05313 5.1875,5.05313 2.85279,0 5.15625,-2.25739 5.15625,-5.05313 0,-0.0512 0.002,-0.10227 0,-0.15312 l 28.09375,0 c -0.002,0.0496 0,0.10319 0,0.15312 0,2.72566 2.24997,4.93063 5.03125,4.93063 2.78128,0 5.03125,-2.20497 5.03125,-4.93063 0,-0.05 0.001,-0.10354 0,-0.15312 l 0.1875,0 0,-47.71375 -0.1875,0 c -0.0854,-2.65231 -2.30408,-4.7775 -5.03125,-4.7775 -2.72717,0 -4.94587,2.12519 -5.03125,4.7775 l -28.4375,0 c -0.0826,-2.72491 -2.35572,-4.9 -5.15625,-4.9 -2.85279,0 -5.15625,2.25739 -5.15625,5.05313 z"
       id="rect4469"
       inkscape:connector-curvature="0" />
    <path
       id="path4491"
       style="fill:none;stroke:#000000;stroke-width:0.80625802;stroke-opacity:1"
       d="m 42.825786,960.92548 c 0,0.60654 0.11289,1.20664 0.3125,1.74562 l 0,45.815 c -0.002,0.051 0,0.1019 0,0.1531 0,2.7958 2.33471,5.0532 5.1875,5.0532 2.85279,0 5.15625,-2.2574 5.15625,-5.0532 0,-0.051 0.002,-0.1023 0,-0.1531 l 28.09375,0 c -0.002,0.05 0,0.1032 0,0.1531 0,2.7257 2.24997,4.9307 5.03125,4.9307 2.78128,0 5.03125,-2.205 5.03125,-4.9307 0,-0.05 0.001,-0.1036 0,-0.1531 l 0.1875,0 0,-47.71375 -0.1875,0 c -0.0854,-2.65231 -2.30408,-4.7775 -5.03125,-4.7775 -2.72717,0 -4.94587,2.12519 -5.03125,4.7775 l -28.4375,0 c -0.0826,-2.72491 -2.35572,-4.9 -5.15625,-4.9 -2.85279,0 -5.15625,2.25739 -5.15625,5.05313 z m 85.202124,23.34637 c 0,33.52485 -27.17726,60.70215 -60.702125,60.70215 -33.524857,0 -60.7021244,-27.1773 -60.7021244,-60.70215 0,-33.52485 27.1772674,-60.70209 60.7021244,-60.70209 33.524865,0 60.702125,27.17724 60.702125,60.70209 z" />
    <path
       style="fill:none;stroke:#000000;stroke-width:0.91738951;stroke-opacity:1"
       d="m 158.93473,943.21633 0,74.56247 10.03125,10.0312 50.90625,0 -0.34375,-0.3437 10.46875,-10.4375 0,-73.81247 -71.0625,0 z"
       id="rect4521"
       inkscape:connector-curvature="0" />
  </g>
</svg>
